# xmcd CD database file
#
# Track frame offsets:
#	150
#	16504
#	31511
#	43492
#	61630
#	73168
#	86797
#	100543
#	116599
#	133014
#	167152
#	185047
#	203947
#	218878
#	231915
#	250726
#
# Disc length: 3484 seconds
#
# Revision: 0
# Processed by: cddbd v1.5.1PL2 Copyright (c) Steve Scherf et al.
# Submitted via: CDex 1.50
#
DISCID=db0d9a10
DTITLE=Linedance - Workshop 4
DYEAR=1900
DGENRE=Country
TTITLE0=Spueeze me in - Garth Brooks and Trisha Yerawood
TTITLE1=Baby please come Home - Scooter Lee
TTITLE2=Cowboy Sweatheart - Leann Rimes
TTITLE3=How do i Live - Leann Rimes
TTITLE4=Who where you thinkin of - Texas Tornados
TTITLE5=It must be love - Alan Jackson
TTITLE6=Just want my Baby back - Jerry Kilgore
TTITLE7=Tricky Tricky - Lou Bega
TTITLE8=Black Coffee - Lacy J. Dalton
TTITLE9=Sometimes when we touch - Newton
TTITLE10=The spirit of the Hawk - Rednex
TTITLE11=I can´t close Enough - Exile
TTITLE12=Cunnamulla Feller
TTITLE13=Come Dance with me - Nancy Hays
TTITLE14=Pizziricco - The Mavericks
TTITLE15=Think of me - The Mavericks
EXTD=
EXTT0=
EXTT1=
EXTT2=
EXTT3=
EXTT4=
EXTT5=
EXTT6=
EXTT7=
EXTT8=
EXTT9=
EXTT10=
EXTT11=
EXTT12=
EXTT13=
EXTT14=
EXTT15=
PLAYORDER=
